<?xml version="1.0" encoding="UTF-8"?>
<svg id="Layer_2" xmlns="http://www.w3.org/2000/svg" viewBox="0 0 100 100">
  <defs>
    <style>
      .cls-1 {
        fill: #4318ff;
      }

      .cls-2 {
        fill: #f4f7fe;
      }
    </style>
  </defs>
  <circle class="cls-2" cx="50" cy="50" r="50"/>
  <path class="cls-1" d="M25,74.44V23.89c0-.32.14-.54.42-.66s.53-.06.76.17l2.01,2.01c.28.28.6.42.97.42s.69-.14.97-.42l2.22-2.22c.28-.28.6-.42.97-.42s.69.14.97.42l2.22,2.22c.28.28.6.42.97.42s.69-.14.97-.42l2.22-2.22c.28-.28.6-.42.97-.42s.69.14.97.42l2.22,2.22c.28.28.6.42.97.42s.69-.14.97-.42l2.22-2.22c.28-.28.6-.42.97-.42s.69.14.97.42l2.22,2.22c.28.28.6.42.97.42s.69-.14.97-.42l2.22-2.22c.28-.28.6-.42.97-.42s.69.14.97.42l2.22,2.22c.28.28.6.42.97.42s.69-.14.97-.42l2.22-2.22c.28-.28.6-.42.97-.42s.69.14.97.42l2.22,2.22c.28.28.6.42.97.42s.69-.14.97-.42l2.01-2.01c.23-.23.49-.29.76-.17s.42.34.42.66v50.56c0,.65-.28,1.09-.83,1.32s-1.06.12-1.53-.35l-.83-.83c-.28-.28-.6-.42-.97-.42s-.69.14-.97.42l-2.22,2.22c-.28.28-.6.42-.97.42s-.69-.14-.97-.42l-2.22-2.22c-.28-.28-.6-.42-.97-.42s-.69.14-.97.42l-2.22,2.22c-.28.28-.6.42-.97.42s-.69-.14-.97-.42l-2.22-2.22c-.28-.28-.6-.42-.97-.42s-.69.14-.97.42l-2.22,2.22c-.28.28-.6.42-.97.42s-.69-.14-.97-.42l-2.22-2.22c-.28-.28-.6-.42-.97-.42s-.69.14-.97.42l-2.22,2.22c-.28.28-.6.42-.97.42s-.69-.14-.97-.42l-2.22-2.22c-.28-.28-.6-.42-.97-.42s-.69.14-.97.42l-2.22,2.22c-.28.28-.6.42-.97.42s-.69-.14-.97-.42l-2.22-2.22c-.28-.28-.6-.42-.97-.42s-.69.14-.97.42l-.83.83c-.46.46-.97.58-1.53.35s-.83-.67-.83-1.32ZM36.11,63.89h27.78c.79,0,1.45-.27,1.98-.8s.8-1.19.8-1.98-.27-1.45-.8-1.98-1.19-.8-1.98-.8h-27.78c-.79,0-1.45.27-1.98.8-.53.53-.8,1.19-.8,1.98s.27,1.45.8,1.98c.53.53,1.19.8,1.98.8ZM36.11,52.78h27.78c.79,0,1.45-.27,1.98-.8s.8-1.19.8-1.98-.27-1.45-.8-1.98c-.53-.53-1.19-.8-1.98-.8h-27.78c-.79,0-1.45.27-1.98.8-.53.53-.8,1.19-.8,1.98s.27,1.45.8,1.98c.53.53,1.19.8,1.98.8ZM36.11,41.67h27.78c.79,0,1.45-.27,1.98-.8s.8-1.19.8-1.98-.27-1.45-.8-1.98-1.19-.8-1.98-.8h-27.78c-.79,0-1.45.27-1.98.8-.53.53-.8,1.19-.8,1.98s.27,1.45.8,1.98c.53.53,1.19.8,1.98.8Z"/>
</svg>