<?xml version="1.0" encoding="UTF-8"?>
<svg id="Layer_2" xmlns="http://www.w3.org/2000/svg" viewBox="0 0 100 100">
  <defs>
    <style>
      .cls-1 {
        fill: #4318ff;
      }

      .cls-2 {
        fill: #f4f7fe;
      }
    </style>
  </defs>
  <circle class="cls-2" cx="50" cy="50" r="50"/>
  <path class="cls-1" d="M49.32,84.19c1.14,0,2.14-.43,2.99-1.28s1.28-1.85,1.28-2.99v-1.83c4.07-.73,7.57-2.32,10.5-4.76s4.4-6.07,4.4-10.87c0-3.42-.98-6.55-2.93-9.4s-5.86-5.33-11.72-7.45c-4.88-1.63-8.26-3.05-10.14-4.27s-2.81-2.89-2.81-5.01.75-3.79,2.26-5.01,3.68-1.83,6.53-1.83c1.63,0,3.05.28,4.27.85s2.24,1.34,3.05,2.32,1.73,1.65,2.75,2.01,1.97.35,2.87-.06c1.22-.49,2.06-1.32,2.5-2.5s.35-2.26-.31-3.24c-1.3-1.87-2.91-3.46-4.82-4.76s-3.97-2.04-6.17-2.2v-1.83c0-1.14-.43-2.14-1.28-2.99s-1.85-1.28-2.99-1.28-2.14.43-2.99,1.28-1.28,1.85-1.28,2.99v1.83c-4.07.9-7.25,2.69-9.52,5.37s-3.42,5.7-3.42,9.04c0,3.83,1.12,6.92,3.36,9.28,2.24,2.36,5.76,4.4,10.56,6.11,5.13,1.87,8.69,3.54,10.69,5.01s2.99,3.38,2.99,5.74c0,2.69-.96,4.66-2.87,5.92s-4.21,1.89-6.9,1.89c-2.12,0-4.03-.51-5.74-1.53s-3.13-2.54-4.27-4.58c-.65-1.14-1.51-1.91-2.56-2.32s-2.12-.41-3.17,0c-1.14.41-1.97,1.18-2.5,2.32s-.55,2.24-.06,3.3c1.3,2.77,3.05,5.03,5.25,6.78s4.84,2.95,7.94,3.6v2.08c0,1.14.43,2.14,1.28,2.99s1.85,1.28,2.99,1.28Z"/>
</svg>