<?xml version="1.0" encoding="UTF-8"?>
<svg id="Layer_2" xmlns="http://www.w3.org/2000/svg" xmlns:xlink="http://www.w3.org/1999/xlink" viewBox="0 0 1030 294">
  <defs>
    <style>
      .cls-1 {
        fill: url(#linear-gradient-2);
      }

      .cls-2 {
        fill: url(#linear-gradient);
      }
    </style>
    <linearGradient id="linear-gradient" x1="100.02" y1="230.5" x2="181.42" y2="22.82" gradientUnits="userSpaceOnUse">
      <stop offset="0" stop-color="#4200ff"/>
      <stop offset=".36" stop-color="#7469ff"/>
      <stop offset=".7" stop-color="#96b9ff"/>
      <stop offset="1" stop-color="#cff0ff"/>
    </linearGradient>
    <linearGradient id="linear-gradient-2" x1="217.69" y1="160.23" x2="309.3" y2="106.52" gradientTransform="translate(-48.36 272.95) rotate(-45.29)" gradientUnits="userSpaceOnUse">
      <stop offset="0" stop-color="#4200ff"/>
      <stop offset=".36" stop-color="#7469ff"/>
      <stop offset=".81" stop-color="#96b9ff"/>
    </linearGradient>
  </defs>
  <g>
    <path class="cls-2" d="M173.41,232.41c-26.22-26.22-33.74-128.68-33.74-128.68,0,0,75.8,5.57,113.69,23.81-5.97-55.95-53.32-99.54-110.86-99.54-61.58,0-111.5,49.92-111.5,111.5s49.92,111.5,111.5,111.5c15.39,0,30.06-3.12,43.4-8.76-4.44-2.72-8.64-5.98-12.49-9.82Z"/>
    <path class="cls-1" d="M270.8,169.45c-17.68-17.5-89.4-25.13-89.4-25.13,0,0,8.34,71.64,26.02,89.14,17.68,17.5,46.19,17.36,63.69-.32,17.5-17.68,17.36-46.19-.32-63.69Z"/>
  </g>
  <g>
    <path d="M307.68,130.55c0-52.55,40.38-92.42,93.45-92.42s93.45,39.87,93.45,92.42c0,36.24-18.9,66.27-48.15,81.55l39.09,40.38h-28.48l-31.58-32.36c-7.77,1.81-15.79,2.85-24.33,2.85-53.07,0-93.45-39.87-93.45-92.42ZM470.25,130.55c0-39.61-29.77-69.64-69.12-69.64s-69.12,30.03-69.12,69.64,29.77,69.64,69.12,69.64,69.12-30.03,69.12-69.64Z"/>
    <path d="M525.13,87.84h22.26v23.82c11.13-16.57,29.25-26.92,51.26-26.92,37.8,0,66.27,29.77,66.27,69.12s-28.48,69.12-66.27,69.12c-22,0-40.12-10.36-51.26-26.92v73h-22.26V87.84ZM641.89,153.85c0-27.18-20.19-47.63-47.37-47.63s-47.11,20.45-47.11,47.63,20.19,47.63,47.11,47.63,47.37-20.45,47.37-47.63Z"/>
    <path d="M686.41,153.85c0-39.35,28.22-69.12,66.01-69.12,22,0,40.12,10.36,51.26,26.92v-23.82h22.26v132.03h-22.26v-23.82c-11.13,16.57-29.25,26.92-51.26,26.92-37.8,0-66.01-29.77-66.01-69.12ZM803.68,153.85c0-27.18-20.19-47.63-47.11-47.63s-47.37,20.45-47.37,47.63,20.19,47.63,47.37,47.63,47.11-20.45,47.11-47.63Z"/>
    <path d="M906.2,219.35l-57.47-131.51h25.37l44.53,105.36,44.53-105.36h24.85l-79.47,181.21h-24.08l21.75-49.7Z"/>
  </g>
</svg>