<?xml version="1.0" encoding="UTF-8"?>
<svg id="Layer_2" xmlns="http://www.w3.org/2000/svg" viewBox="0 0 100 100">
  <defs>
    <style>
      .cls-1 {
        fill: #4318ff;
      }

      .cls-2 {
        fill: #f4f7fe;
      }
    </style>
  </defs>
  <circle class="cls-2" cx="50" cy="50" r="50"/>
  <path class="cls-1" d="M46.81,69.14v1.6c0,.43.16.8.48,1.12s.69.48,1.12.48h3.19c.43,0,.8-.16,1.12-.48s.48-.69.48-1.12v-1.6h3.19c.9,0,1.66-.31,2.27-.92.61-.61.92-1.37.92-2.27v-9.57c0-.9-.31-1.66-.92-2.27s-1.37-.92-2.27-.92h-9.57v-3.19h9.57c.9,0,1.66-.31,2.27-.92s.92-1.37.92-2.27-.31-1.66-.92-2.27-1.37-.92-2.27-.92h-3.19v-1.6c0-.43-.16-.8-.48-1.12s-.69-.48-1.12-.48h-3.19c-.43,0-.8.16-1.12.48s-.48.69-.48,1.12v1.6h-3.19c-.9,0-1.66.31-2.27.92s-.92,1.37-.92,2.27v9.57c0,.9.31,1.66.92,2.27s1.37.92,2.27.92h9.57v3.19h-9.57c-.9,0-1.66.31-2.27.92s-.92,1.37-.92,2.27.31,1.66.92,2.27c.61.61,1.37.92,2.27.92h3.19ZM30.86,81.91c-1.75,0-3.26-.62-4.51-1.87s-1.87-2.75-1.87-4.51V24.48c0-1.75.62-3.26,1.87-4.51s2.75-1.87,4.51-1.87h28.72l15.95,15.95v41.48c0,1.75-.62,3.26-1.87,4.51s-2.75,1.87-4.51,1.87H30.86ZM56.38,24.48v9.57c0,.9.31,1.66.92,2.27s1.37.92,2.27.92h9.57l-12.76-12.76Z"/>
</svg>