<?xml version="1.0" encoding="UTF-8"?>
<svg xmlns="http://www.w3.org/2000/svg" version="1.1" viewBox="0 0 24 24">
  <defs>
    <style>
      .cls-1 {
        fill: #4318ff;
      }
    </style>
  </defs>
  <!-- Generator: Adobe Illustrator 28.7.2, SVG Export Plug-In . SVG Version: 1.2.0 Build 154)  -->
  <g>
    <g id="Layer_1">
      <path class="cls-1" d="M5,19V5v14ZM5,21c-.6,0-1-.2-1.4-.6-.4-.4-.6-.9-.6-1.4V5c0-.6.2-1,.6-1.4.4-.4.9-.6,1.4-.6h14c.6,0,1,.2,1.4.6s.6.9.6,1.4v2.5h-2v-2.5H5v14h14v-2.5h2v2.5c0,.6-.2,1-.6,1.4-.4.4-.9.6-1.4.6H5ZM13,17c-.6,0-1-.2-1.4-.6s-.6-.9-.6-1.4v-6c0-.6.2-1,.6-1.4s.9-.6,1.4-.6h7c.6,0,1,.2,1.4.6s.6.9.6,1.4v6c0,.6-.2,1-.6,1.4s-.9.6-1.4.6h-7ZM20,15v-6h-7v6h7ZM16,13.5c.4,0,.8-.1,1.1-.4s.4-.6.4-1.1-.1-.8-.4-1.1c-.3-.3-.6-.4-1.1-.4s-.8.1-1.1.4c-.3.3-.4.6-.4,1.1s.1.8.4,1.1.6.4,1.1.4Z"/>
    </g>
  </g>
</svg>