<?xml version="1.0" encoding="UTF-8"?>
<svg xmlns="http://www.w3.org/2000/svg" version="1.1" viewBox="0 0 24 24">
  <defs>
    <style>
      .cls-1 {
        fill: #4318ff;
      }
    </style>
  </defs>
  <!-- Generator: Adobe Illustrator 28.7.2, SVG Export Plug-In . SVG Version: 1.2.0 Build 154)  -->
  <g>
    <g id="Layer_1">
      <path class="cls-1" d="M8,18h8v-2h-8v2ZM8,14h8v-2h-8v2ZM6,22c-.6,0-1-.2-1.4-.6s-.6-.9-.6-1.4V4c0-.6.2-1,.6-1.4s.9-.6,1.4-.6h8l6,6v12c0,.6-.2,1-.6,1.4s-.9.6-1.4.6H6ZM13,9V4h-7v16h12v-11h-5ZM6,4v5V4v16V4Z"/>
    </g>
  </g>
</svg>