<?xml version="1.0" encoding="UTF-8"?>
<svg xmlns="http://www.w3.org/2000/svg" version="1.1" viewBox="0 0 24 24">
  <defs>
    <style>
      .cls-1 {
        fill: #4318ff;
      }
    </style>
  </defs>
  <!-- Generator: Adobe Illustrator 28.7.2, SVG Export Plug-In . SVG Version: 1.2.0 Build 154)  -->
  <g>
    <g id="Layer_1">
      <path class="cls-1" d="M14,13c-.8,0-1.5-.3-2.1-.9s-.9-1.3-.9-2.1.3-1.5.9-2.1,1.3-.9,2.1-.9,1.5.3,2.1.9.9,1.3.9,2.1-.3,1.5-.9,2.1-1.3.9-2.1.9ZM7,16c-.6,0-1-.2-1.4-.6s-.6-.9-.6-1.4V6c0-.6.2-1,.6-1.4s.9-.6,1.4-.6h14c.6,0,1,.2,1.4.6s.6.9.6,1.4v8c0,.6-.2,1-.6,1.4s-.9.6-1.4.6H7ZM9,14h10c0-.6.2-1,.6-1.4s.9-.6,1.4-.6v-4c-.6,0-1-.2-1.4-.6s-.6-.9-.6-1.4h-10c0,.6-.2,1-.6,1.4s-.9.6-1.4.6v4c.6,0,1,.2,1.4.6s.6.9.6,1.4ZM20,20H3c-.6,0-1-.2-1.4-.6-.4-.4-.6-.9-.6-1.4V7h2v11h17v2ZM7,14V6v8Z"/>
    </g>
  </g>
</svg>