<?xml version="1.0" encoding="UTF-8"?>
<svg xmlns="http://www.w3.org/2000/svg" version="1.1" viewBox="0 0 24 24">
  <defs>
    <style>
      .cls-1 {
        fill: #4318ff;
      }
    </style>
  </defs>
  <!-- Generator: Adobe Illustrator 28.7.2, SVG Export Plug-In . SVG Version: 1.2.0 Build 154)  -->
  <g>
    <g id="Layer_1">
      <path class="cls-1" d="M7.1,14.7l7.3,2,6.2-1.9c0-.2-.2-.3-.4-.4s-.4-.2-.6-.2h-5.3c-.5,0-.8,0-1.1,0-.3,0-.6-.1-.9-.2l-2.4-.8.6-2,2.1.7c.3,0,.6.2,1,.2s1,0,1.8.1c0-.2,0-.4-.2-.5s-.2-.3-.4-.3l-6.1-2.2h-1.7v5.7ZM.8,18.3V6.8h7.9c.1,0,.2,0,.4,0s.2,0,.3,0l6.1,2.3c.6.2,1,.6,1.4,1.1s.5,1.1.5,1.7h2.1c.9,0,1.6.3,2.2.9s.9,1.3.9,2.3v1l-8.3,2.6-7.3-2v1.5H.8ZM2.9,16.2h2.1v-7.3h-2.1v7.3Z"/>
    </g>
  </g>
</svg>