<?xml version="1.0" encoding="UTF-8"?>
<svg xmlns="http://www.w3.org/2000/svg" version="1.1" viewBox="0 0 24 24">
  <defs>
    <style>
      .cls-1 {
        fill: #4318ff;
      }
    </style>
  </defs>
  <!-- Generator: Adobe Illustrator 28.7.2, SVG Export Plug-In . SVG Version: 1.2.0 Build 154)  -->
  <g>
    <g id="Layer_1">
      <path class="cls-1" d="M16,11c.3,0,.5,0,.7-.3s.3-.4.3-.7,0-.5-.3-.7-.4-.3-.7-.3-.5,0-.7.3-.3.4-.3.7,0,.5.3.7.4.3.7.3ZM8,9h5v-2h-5v2ZM4.5,21c-.6-1.9-1.1-3.8-1.7-5.7s-.8-3.8-.8-5.8.5-2.8,1.6-3.9c1.1-1.1,2.4-1.6,3.9-1.6h5c.5-.6,1.1-1.1,1.8-1.5s1.4-.5,2.2-.5.8.1,1.1.4.4.6.4,1.1,0,.2,0,.3,0,.2,0,.3c0,.2-.1.4-.2.6s-.1.4-.1.6l2.3,2.3h2.2v7l-2.8.9-1.7,5.6h-5.5v-2h-2v2h-5.5ZM6,19h2v-2h6v2h2l1.6-5.2,2.5-.8v-3.5h-1l-3.5-3.5c0-.3,0-.7,0-1s.1-.6.2-.9c-.5.1-.9.4-1.3.7s-.6.7-.8,1.2h-6.2c-1,0-1.8.3-2.5,1s-1,1.5-1,2.5c0,1.6.2,3.2.7,4.8s.9,3.1,1.3,4.7Z"/>
    </g>
  </g>
</svg>