<?xml version="1.0" encoding="UTF-8"?>
<svg xmlns="http://www.w3.org/2000/svg" version="1.1" viewBox="0 0 24 24">
  <defs>
    <style>
      .cls-1 {
        fill: #4318ff;
      }
    </style>
  </defs>
  <!-- Generator: Adobe Illustrator 28.7.2, SVG Export Plug-In . SVG Version: 1.2.0 Build 154)  -->
  <g>
    <g id="Layer_1">
      <path class="cls-1" d="M3,20V4l14.3,6h-.3c-.6,0-1.1,0-1.7.2s-1,.3-1.5.6l-8.9-3.8v3.5l6,1.5-6,1.5v3.5l5.4-2.3c-.1.4-.2.8-.3,1.1s-.1.8-.1,1.2h0c0,0-7,3-7,3ZM17,22c-1.4,0-2.6-.5-3.5-1.5s-1.5-2.2-1.5-3.5.5-2.6,1.5-3.5,2.2-1.5,3.5-1.5,2.6.5,3.5,1.5,1.5,2.2,1.5,3.5-.5,2.6-1.5,3.5-2.2,1.5-3.5,1.5ZM18.7,19.3l.7-.7-1.9-1.9v-2.8h-1v3.2l2.2,2.2ZM5,14.7v-7.7,10-2.3Z"/>
    </g>
  </g>
</svg>