<?xml version="1.0" encoding="UTF-8"?>
<svg id="Layer_1" xmlns="http://www.w3.org/2000/svg" viewBox="0 0 178.59 199.82">
  <defs>
    <style>
      .cls-1 {
        fill: #4318ff;
      }
    </style>
  </defs>
  <path class="cls-1" d="M0,199.82V0l178.59,74.93h-3.75c-7.29,0-14.15.83-20.61,2.5-6.45,1.67-12.7,3.95-18.73,6.87L24.98,37.47v43.71l74.93,18.73-74.93,18.73v43.71l67.44-28.72c-1.67,4.79-2.91,9.52-3.75,14.21-.83,4.68-1.25,9.52-1.25,14.52v.62L0,199.82ZM24.98,133.63V37.47v124.89-28.72Z"/>
  <path class="cls-1" d="M174.7,130.44c-1.77-1.77-3.97-2.66-6.58-2.66v-9.24c0-5.08-1.81-9.43-5.43-13.05-3.62-3.62-7.97-5.43-13.05-5.43s-9.43,1.81-13.05,5.43c-3.62,3.62-5.43,7.97-5.43,13.05v9.24c-2.62,0-4.81.89-6.58,2.66-1.77,1.77-2.66,3.97-2.66,6.58v27.72c0,2.62.89,4.81,2.66,6.58,1.77,1.77,3.97,2.66,6.58,2.66h36.96c2.62,0,4.81-.89,6.58-2.66,1.77-1.77,2.66-3.97,2.66-6.58v-27.72c0-2.62-.89-4.81-2.66-6.58ZM158.88,127.78h-18.48v-9.24c0-2.62.89-4.81,2.66-6.58s3.97-2.66,6.58-2.66,4.81.89,6.58,2.66c1.77,1.77,2.66,3.97,2.66,6.58v9.24Z"/>
</svg>