<?xml version="1.0" encoding="UTF-8"?>
<svg xmlns="http://www.w3.org/2000/svg" version="1.1" viewBox="0 0 24 24">
  <defs>
    <style>
      .cls-1 {
        fill: #4318ff;
      }
    </style>
  </defs>
  <!-- Generator: Adobe Illustrator 28.7.2, SVG Export Plug-In . SVG Version: 1.2.0 Build 154)  -->
  <g>
    <g id="Layer_1">
      <path class="cls-1" d="M14.1,11.7c1.2-.9,2.2-1.9,2.9-3s1-2.1,1-3.2,0-.9-.3-1.2-.4-.4-.7-.4c-.8,0-1.5.7-2.1,2s-.9,2.8-.9,4.5,0,.5,0,.7c0,.2,0,.4,0,.6ZM3,21v-2h2v2h-2ZM7,21v-2h2v2h-2ZM11,21v-2h2v2h-2ZM15,21v-2h2v2h-2ZM19,21v-2h2v2h-2ZM3.4,17l-1.4-1.4,1.6-1.6-1.6-1.6,1.4-1.4,1.6,1.6,1.6-1.6,1.4,1.4-1.6,1.6,1.6,1.6-1.4,1.4-1.6-1.6-1.6,1.6ZM15.5,16c-.5,0-1,0-1.4-.3s-.8-.5-1.1-.9c-.4.2-.8.4-1.3.6s-.9.4-1.4.6l-.7-1.9c.5-.2.9-.3,1.3-.5s.8-.4,1.2-.6c0-.4-.1-.8-.2-1.2s0-.9,0-1.4c0-2.4.5-4.4,1.4-6s2.1-2.4,3.6-2.4,1.6.3,2.1,1,.8,1.5.8,2.7-.5,2.9-1.4,4.3-2.2,2.7-3.8,3.8c.1.1.2.2.4.3s.3,0,.4,0c.4,0,.9-.3,1.5-.8s1.1-1.3,1.6-2.2l1.8.9c-.1.3-.2.6-.3,1s0,.8,0,1.1c.2,0,.4-.2.6-.4s.5-.5.7-.8l1.6,1.2c-.4.6-.9,1.1-1.5,1.5s-1.1.6-1.6.6-.7-.1-.9-.3-.5-.5-.7-1c-.5.4-.9.7-1.4,1s-1,.3-1.5.3Z"/>
    </g>
  </g>
</svg>