<?xml version="1.0" encoding="UTF-8"?>
<svg xmlns="http://www.w3.org/2000/svg" version="1.1" viewBox="0 0 24 24">
  <defs>
    <style>
      .cls-1 {
        fill: #4318ff;
      }
    </style>
  </defs>
  <!-- Generator: Adobe Illustrator 28.7.2, SVG Export Plug-In . SVG Version: 1.2.0 Build 154)  -->
  <g>
    <g id="Layer_1">
      <path class="cls-1" d="M6,20c-1.1,0-2-.4-2.8-1.2-.8-.8-1.2-1.7-1.2-2.8V8c0-1.1.4-2,1.2-2.8.8-.8,1.7-1.2,2.8-1.2h12c1.1,0,2,.4,2.8,1.2s1.2,1.7,1.2,2.8v8c0,1.1-.4,2-1.2,2.8s-1.7,1.2-2.8,1.2H6ZM6,8h12c.4,0,.7,0,1.1.1s.7.2,1,.4v-.5c0-.6-.2-1-.6-1.4s-.9-.6-1.4-.6H6c-.6,0-1,.2-1.4.6s-.6.9-.6,1.4v.5c.3-.2.6-.3,1-.4s.7-.1,1.1-.1ZM4.2,11.2l11.1,2.7c.2,0,.3,0,.5,0s.3-.1.4-.2l3.5-2.9c-.2-.3-.4-.5-.7-.6s-.6-.2-.9-.2H6c-.4,0-.8.1-1.1.3s-.6.5-.7.9Z"/>
    </g>
  </g>
</svg>